<mxfile host="Electron" modified="2023-11-03T01:48:55.167Z" agent="Mozilla/5.0 (Windows NT 10.0; Win64; x64) AppleWebKit/537.36 (KHTML, like Gecko) draw.io/22.0.3 Chrome/114.0.5735.289 Electron/25.8.4 Safari/537.36" etag="qZTDzp-z5pjmTkH3emDY" version="22.0.3" type="device">
  <diagram id="C5RBs43oDa-KdzZeNtuy" name="Earth-&gt;Moon">
    <mxGraphModel dx="2336" dy="2049" grid="1" gridSize="10" guides="1" tooltips="1" connect="1" arrows="1" fold="1" page="1" pageScale="1" pageWidth="827" pageHeight="1169" math="0" shadow="0">
      <root>
        <mxCell id="WIyWlLk6GJQsqaUBKTNV-0" />
        <mxCell id="WIyWlLk6GJQsqaUBKTNV-1" parent="WIyWlLk6GJQsqaUBKTNV-0" />
        <mxCell id="cwQ-OPMPcQKXecQ_NL5o-87" style="edgeStyle=orthogonalEdgeStyle;rounded=0;orthogonalLoop=1;jettySize=auto;html=1;entryX=0.5;entryY=0;entryDx=0;entryDy=0;" parent="WIyWlLk6GJQsqaUBKTNV-1" source="9_5W3yclDO51c-iYAp30-9" target="9_5W3yclDO51c-iYAp30-6" edge="1">
          <mxGeometry relative="1" as="geometry" />
        </mxCell>
        <mxCell id="9_5W3yclDO51c-iYAp30-9" value="Fueling Port" style="rounded=0;whiteSpace=wrap;html=1;" parent="WIyWlLk6GJQsqaUBKTNV-1" vertex="1">
          <mxGeometry x="810" y="-15" width="120" height="20" as="geometry" />
        </mxCell>
        <mxCell id="9_5W3yclDO51c-iYAp30-6" value="First Ship" style="rounded=1;whiteSpace=wrap;html=1;" parent="WIyWlLk6GJQsqaUBKTNV-1" vertex="1">
          <mxGeometry x="500" y="15" width="110" height="20" as="geometry" />
        </mxCell>
        <mxCell id="cwQ-OPMPcQKXecQ_NL5o-86" style="edgeStyle=orthogonalEdgeStyle;rounded=0;orthogonalLoop=1;jettySize=auto;html=1;entryX=0.5;entryY=0;entryDx=0;entryDy=0;" parent="WIyWlLk6GJQsqaUBKTNV-1" source="9_5W3yclDO51c-iYAp30-14" target="9_5W3yclDO51c-iYAp30-6" edge="1">
          <mxGeometry relative="1" as="geometry" />
        </mxCell>
        <mxCell id="9_5W3yclDO51c-iYAp30-14" value="Command Seat" style="rounded=0;whiteSpace=wrap;html=1;" parent="WIyWlLk6GJQsqaUBKTNV-1" vertex="1">
          <mxGeometry x="670" y="-130" width="120" height="20" as="geometry" />
        </mxCell>
        <mxCell id="cwQ-OPMPcQKXecQ_NL5o-54" style="edgeStyle=orthogonalEdgeStyle;rounded=0;orthogonalLoop=1;jettySize=auto;html=1;entryX=0.75;entryY=1;entryDx=0;entryDy=0;exitX=0.5;exitY=1;exitDx=0;exitDy=0;" parent="WIyWlLk6GJQsqaUBKTNV-1" source="9_5W3yclDO51c-iYAp30-15" target="9_5W3yclDO51c-iYAp30-16" edge="1">
          <mxGeometry relative="1" as="geometry">
            <Array as="points">
              <mxPoint x="250" y="350" />
              <mxPoint x="444" y="350" />
            </Array>
          </mxGeometry>
        </mxCell>
        <mxCell id="cwQ-OPMPcQKXecQ_NL5o-66" style="edgeStyle=orthogonalEdgeStyle;rounded=0;orthogonalLoop=1;jettySize=auto;html=1;exitX=0.25;exitY=1;exitDx=0;exitDy=0;entryX=0;entryY=0.5;entryDx=0;entryDy=0;" parent="WIyWlLk6GJQsqaUBKTNV-1" source="9_5W3yclDO51c-iYAp30-15" target="9_5W3yclDO51c-iYAp30-6" edge="1">
          <mxGeometry relative="1" as="geometry">
            <Array as="points">
              <mxPoint x="220" y="410" />
              <mxPoint x="490" y="410" />
              <mxPoint x="490" y="25" />
            </Array>
          </mxGeometry>
        </mxCell>
        <mxCell id="9_5W3yclDO51c-iYAp30-15" value="Nav. Computer" style="rounded=0;whiteSpace=wrap;html=1;" parent="WIyWlLk6GJQsqaUBKTNV-1" vertex="1">
          <mxGeometry x="190" y="280" width="120" height="20" as="geometry" />
        </mxCell>
        <mxCell id="cwQ-OPMPcQKXecQ_NL5o-53" style="edgeStyle=orthogonalEdgeStyle;rounded=0;orthogonalLoop=1;jettySize=auto;html=1;entryX=1;entryY=0.5;entryDx=0;entryDy=0;" parent="WIyWlLk6GJQsqaUBKTNV-1" source="9_5W3yclDO51c-iYAp30-16" target="9_5W3yclDO51c-iYAp30-15" edge="1">
          <mxGeometry relative="1" as="geometry">
            <Array as="points">
              <mxPoint x="414" y="290" />
            </Array>
          </mxGeometry>
        </mxCell>
        <mxCell id="9_5W3yclDO51c-iYAp30-16" value="Nav Chip" style="rounded=0;whiteSpace=wrap;html=1;" parent="WIyWlLk6GJQsqaUBKTNV-1" vertex="1">
          <mxGeometry x="354" y="235" width="120" height="20" as="geometry" />
        </mxCell>
        <mxCell id="cwQ-OPMPcQKXecQ_NL5o-48" style="edgeStyle=orthogonalEdgeStyle;rounded=0;orthogonalLoop=1;jettySize=auto;html=1;entryX=0;entryY=0.5;entryDx=0;entryDy=0;" parent="WIyWlLk6GJQsqaUBKTNV-1" source="9_5W3yclDO51c-iYAp30-17" target="9_5W3yclDO51c-iYAp30-16" edge="1">
          <mxGeometry relative="1" as="geometry">
            <mxPoint x="350" y="245" as="targetPoint" />
          </mxGeometry>
        </mxCell>
        <mxCell id="9_5W3yclDO51c-iYAp30-17" value="Chip Programmer" style="rounded=0;whiteSpace=wrap;html=1;" parent="WIyWlLk6GJQsqaUBKTNV-1" vertex="1">
          <mxGeometry x="190" y="230" width="120" height="30" as="geometry" />
        </mxCell>
        <mxCell id="cwQ-OPMPcQKXecQ_NL5o-37" style="edgeStyle=orthogonalEdgeStyle;rounded=0;orthogonalLoop=1;jettySize=auto;html=1;" parent="WIyWlLk6GJQsqaUBKTNV-1" source="9_5W3yclDO51c-iYAp30-20" target="cwQ-OPMPcQKXecQ_NL5o-35" edge="1">
          <mxGeometry relative="1" as="geometry" />
        </mxCell>
        <mxCell id="cwQ-OPMPcQKXecQ_NL5o-38" style="edgeStyle=orthogonalEdgeStyle;rounded=0;orthogonalLoop=1;jettySize=auto;html=1;entryX=0;entryY=0.5;entryDx=0;entryDy=0;" parent="WIyWlLk6GJQsqaUBKTNV-1" source="9_5W3yclDO51c-iYAp30-20" target="cwQ-OPMPcQKXecQ_NL5o-26" edge="1">
          <mxGeometry relative="1" as="geometry">
            <Array as="points">
              <mxPoint x="-40" y="-175" />
            </Array>
          </mxGeometry>
        </mxCell>
        <mxCell id="_uk67Srlux6ZUrrW_Brj-21" style="edgeStyle=orthogonalEdgeStyle;rounded=0;orthogonalLoop=1;jettySize=auto;html=1;entryX=0.5;entryY=0;entryDx=0;entryDy=0;" parent="WIyWlLk6GJQsqaUBKTNV-1" source="9_5W3yclDO51c-iYAp30-20" target="_uk67Srlux6ZUrrW_Brj-18" edge="1">
          <mxGeometry relative="1" as="geometry">
            <Array as="points">
              <mxPoint x="-180" y="50" />
              <mxPoint x="-75" y="50" />
            </Array>
          </mxGeometry>
        </mxCell>
        <mxCell id="_uk67Srlux6ZUrrW_Brj-22" style="edgeStyle=orthogonalEdgeStyle;rounded=0;orthogonalLoop=1;jettySize=auto;html=1;entryX=0.5;entryY=0;entryDx=0;entryDy=0;" parent="WIyWlLk6GJQsqaUBKTNV-1" source="9_5W3yclDO51c-iYAp30-20" target="_uk67Srlux6ZUrrW_Brj-17" edge="1">
          <mxGeometry relative="1" as="geometry">
            <Array as="points">
              <mxPoint x="-220" y="50" />
              <mxPoint x="-315" y="50" />
            </Array>
          </mxGeometry>
        </mxCell>
        <mxCell id="9_5W3yclDO51c-iYAp30-20" value="Earth" style="shape=hexagon;perimeter=hexagonPerimeter2;whiteSpace=wrap;html=1;fixedSize=1;" parent="WIyWlLk6GJQsqaUBKTNV-1" vertex="1">
          <mxGeometry x="-260" width="120" height="30" as="geometry" />
        </mxCell>
        <mxCell id="9_5W3yclDO51c-iYAp30-21" value="Moon" style="shape=hexagon;perimeter=hexagonPerimeter2;whiteSpace=wrap;html=1;fixedSize=1;" parent="WIyWlLk6GJQsqaUBKTNV-1" vertex="1">
          <mxGeometry x="680" y="10" width="120" height="30" as="geometry" />
        </mxCell>
        <mxCell id="cwQ-OPMPcQKXecQ_NL5o-64" style="edgeStyle=orthogonalEdgeStyle;rounded=0;orthogonalLoop=1;jettySize=auto;html=1;entryX=0;entryY=0.5;entryDx=0;entryDy=0;" parent="WIyWlLk6GJQsqaUBKTNV-1" source="9_5W3yclDO51c-iYAp30-22" target="9_5W3yclDO51c-iYAp30-6" edge="1">
          <mxGeometry relative="1" as="geometry">
            <Array as="points">
              <mxPoint x="470" y="140" />
              <mxPoint x="470" y="25" />
            </Array>
          </mxGeometry>
        </mxCell>
        <mxCell id="9_5W3yclDO51c-iYAp30-22" value="Landing Gear" style="rounded=0;whiteSpace=wrap;html=1;" parent="WIyWlLk6GJQsqaUBKTNV-1" vertex="1">
          <mxGeometry x="190" y="130" width="120" height="20" as="geometry" />
        </mxCell>
        <mxCell id="cwQ-OPMPcQKXecQ_NL5o-62" style="edgeStyle=orthogonalEdgeStyle;rounded=0;orthogonalLoop=1;jettySize=auto;html=1;exitX=0.75;exitY=0;exitDx=0;exitDy=0;entryX=0;entryY=0.5;entryDx=0;entryDy=0;" parent="WIyWlLk6GJQsqaUBKTNV-1" source="9_5W3yclDO51c-iYAp30-23" target="9_5W3yclDO51c-iYAp30-6" edge="1">
          <mxGeometry relative="1" as="geometry">
            <Array as="points">
              <mxPoint x="280" y="40" />
              <mxPoint x="470" y="40" />
              <mxPoint x="470" y="25" />
            </Array>
          </mxGeometry>
        </mxCell>
        <mxCell id="9_5W3yclDO51c-iYAp30-23" value="Thrusters" style="rounded=0;whiteSpace=wrap;html=1;" parent="WIyWlLk6GJQsqaUBKTNV-1" vertex="1">
          <mxGeometry x="190" y="50" width="120" height="20" as="geometry" />
        </mxCell>
        <mxCell id="cwQ-OPMPcQKXecQ_NL5o-63" style="edgeStyle=orthogonalEdgeStyle;rounded=0;orthogonalLoop=1;jettySize=auto;html=1;entryX=0;entryY=0.5;entryDx=0;entryDy=0;" parent="WIyWlLk6GJQsqaUBKTNV-1" source="9_5W3yclDO51c-iYAp30-24" target="9_5W3yclDO51c-iYAp30-6" edge="1">
          <mxGeometry relative="1" as="geometry">
            <Array as="points">
              <mxPoint x="250" y="110" />
              <mxPoint x="470" y="110" />
              <mxPoint x="470" y="25" />
            </Array>
          </mxGeometry>
        </mxCell>
        <mxCell id="9_5W3yclDO51c-iYAp30-24" value="Fuel Tanks" style="rounded=0;whiteSpace=wrap;html=1;" parent="WIyWlLk6GJQsqaUBKTNV-1" vertex="1">
          <mxGeometry x="190" y="80" width="120" height="20" as="geometry" />
        </mxCell>
        <mxCell id="cwQ-OPMPcQKXecQ_NL5o-65" style="edgeStyle=orthogonalEdgeStyle;rounded=0;orthogonalLoop=1;jettySize=auto;html=1;exitX=1;exitY=0.5;exitDx=0;exitDy=0;entryX=0;entryY=0.5;entryDx=0;entryDy=0;" parent="WIyWlLk6GJQsqaUBKTNV-1" source="9_5W3yclDO51c-iYAp30-26" target="9_5W3yclDO51c-iYAp30-6" edge="1">
          <mxGeometry relative="1" as="geometry">
            <Array as="points">
              <mxPoint x="470" y="170" />
              <mxPoint x="470" y="25" />
            </Array>
          </mxGeometry>
        </mxCell>
        <mxCell id="9_5W3yclDO51c-iYAp30-26" value="Airlock" style="rounded=0;whiteSpace=wrap;html=1;" parent="WIyWlLk6GJQsqaUBKTNV-1" vertex="1">
          <mxGeometry x="190" y="160" width="120" height="20" as="geometry" />
        </mxCell>
        <mxCell id="cwQ-OPMPcQKXecQ_NL5o-85" style="edgeStyle=orthogonalEdgeStyle;rounded=0;orthogonalLoop=1;jettySize=auto;html=1;entryX=0.5;entryY=0;entryDx=0;entryDy=0;" parent="WIyWlLk6GJQsqaUBKTNV-1" source="9_5W3yclDO51c-iYAp30-28" target="9_5W3yclDO51c-iYAp30-6" edge="1">
          <mxGeometry relative="1" as="geometry" />
        </mxCell>
        <mxCell id="9_5W3yclDO51c-iYAp30-28" value="Manual Controls" style="rounded=0;whiteSpace=wrap;html=1;" parent="WIyWlLk6GJQsqaUBKTNV-1" vertex="1">
          <mxGeometry x="670" y="-100" width="120" height="20" as="geometry" />
        </mxCell>
        <mxCell id="9_5W3yclDO51c-iYAp30-29" value="Stellar Port" style="rounded=0;whiteSpace=wrap;html=1;" parent="WIyWlLk6GJQsqaUBKTNV-1" vertex="1">
          <mxGeometry x="670" y="-70" width="120" height="20" as="geometry" />
        </mxCell>
        <mxCell id="9_5W3yclDO51c-iYAp30-64" style="edgeStyle=orthogonalEdgeStyle;rounded=0;orthogonalLoop=1;jettySize=auto;html=1;entryX=0.5;entryY=1;entryDx=0;entryDy=0;" parent="WIyWlLk6GJQsqaUBKTNV-1" source="9_5W3yclDO51c-iYAp30-30" target="9_5W3yclDO51c-iYAp30-6" edge="1">
          <mxGeometry relative="1" as="geometry" />
        </mxCell>
        <mxCell id="9_5W3yclDO51c-iYAp30-30" value="Super Glue" style="rounded=0;whiteSpace=wrap;html=1;" parent="WIyWlLk6GJQsqaUBKTNV-1" vertex="1">
          <mxGeometry x="495" y="60" width="120" height="20" as="geometry" />
        </mxCell>
        <mxCell id="cwQ-OPMPcQKXecQ_NL5o-3" value="" style="shape=flexArrow;endArrow=classic;html=1;rounded=0;exitX=1;exitY=0.5;exitDx=0;exitDy=0;entryX=0;entryY=0.5;entryDx=0;entryDy=0;" parent="WIyWlLk6GJQsqaUBKTNV-1" source="9_5W3yclDO51c-iYAp30-6" target="9_5W3yclDO51c-iYAp30-21" edge="1">
          <mxGeometry width="50" height="50" relative="1" as="geometry">
            <mxPoint x="660" y="200" as="sourcePoint" />
            <mxPoint x="710" y="150" as="targetPoint" />
          </mxGeometry>
        </mxCell>
        <mxCell id="cwQ-OPMPcQKXecQ_NL5o-50" style="edgeStyle=orthogonalEdgeStyle;rounded=0;orthogonalLoop=1;jettySize=auto;html=1;entryX=0;entryY=0.5;entryDx=0;entryDy=0;" parent="WIyWlLk6GJQsqaUBKTNV-1" target="9_5W3yclDO51c-iYAp30-15" edge="1" source="_uk67Srlux6ZUrrW_Brj-23">
          <mxGeometry relative="1" as="geometry">
            <Array as="points">
              <mxPoint x="-60" y="290" />
            </Array>
            <mxPoint y="120" as="sourcePoint" />
          </mxGeometry>
        </mxCell>
        <mxCell id="cwQ-OPMPcQKXecQ_NL5o-15" style="edgeStyle=orthogonalEdgeStyle;rounded=0;orthogonalLoop=1;jettySize=auto;html=1;" parent="WIyWlLk6GJQsqaUBKTNV-1" source="cwQ-OPMPcQKXecQ_NL5o-9" target="9_5W3yclDO51c-iYAp30-23" edge="1">
          <mxGeometry relative="1" as="geometry" />
        </mxCell>
        <mxCell id="cwQ-OPMPcQKXecQ_NL5o-16" style="edgeStyle=orthogonalEdgeStyle;rounded=0;orthogonalLoop=1;jettySize=auto;html=1;" parent="WIyWlLk6GJQsqaUBKTNV-1" source="cwQ-OPMPcQKXecQ_NL5o-9" target="9_5W3yclDO51c-iYAp30-24" edge="1">
          <mxGeometry relative="1" as="geometry" />
        </mxCell>
        <mxCell id="cwQ-OPMPcQKXecQ_NL5o-9" value="Brass" style="ellipse;whiteSpace=wrap;html=1;" parent="WIyWlLk6GJQsqaUBKTNV-1" vertex="1">
          <mxGeometry x="360" y="60" width="60" height="30" as="geometry" />
        </mxCell>
        <mxCell id="cwQ-OPMPcQKXecQ_NL5o-13" value="Silicon Plating" style="shape=process;whiteSpace=wrap;html=1;backgroundOutline=1;" parent="WIyWlLk6GJQsqaUBKTNV-1" vertex="1">
          <mxGeometry x="210" y="5" width="80" height="30" as="geometry" />
        </mxCell>
        <mxCell id="cwQ-OPMPcQKXecQ_NL5o-18" style="edgeStyle=orthogonalEdgeStyle;rounded=0;orthogonalLoop=1;jettySize=auto;html=1;entryX=1;entryY=0.5;entryDx=0;entryDy=0;" parent="WIyWlLk6GJQsqaUBKTNV-1" source="cwQ-OPMPcQKXecQ_NL5o-17" target="cwQ-OPMPcQKXecQ_NL5o-13" edge="1">
          <mxGeometry relative="1" as="geometry" />
        </mxCell>
        <mxCell id="cwQ-OPMPcQKXecQ_NL5o-17" value="Mechanical Press" style="rounded=0;whiteSpace=wrap;html=1;" parent="WIyWlLk6GJQsqaUBKTNV-1" vertex="1">
          <mxGeometry x="270" y="-50" width="90" height="30" as="geometry" />
        </mxCell>
        <mxCell id="cwQ-OPMPcQKXecQ_NL5o-21" style="edgeStyle=orthogonalEdgeStyle;rounded=0;orthogonalLoop=1;jettySize=auto;html=1;entryX=0;entryY=0.5;entryDx=0;entryDy=0;" parent="WIyWlLk6GJQsqaUBKTNV-1" source="cwQ-OPMPcQKXecQ_NL5o-20" target="cwQ-OPMPcQKXecQ_NL5o-13" edge="1">
          <mxGeometry relative="1" as="geometry" />
        </mxCell>
        <mxCell id="cwQ-OPMPcQKXecQ_NL5o-20" value="Silicon" style="ellipse;whiteSpace=wrap;html=1;" parent="WIyWlLk6GJQsqaUBKTNV-1" vertex="1">
          <mxGeometry x="160" y="-50" width="50" height="30" as="geometry" />
        </mxCell>
        <mxCell id="cwQ-OPMPcQKXecQ_NL5o-23" style="edgeStyle=orthogonalEdgeStyle;rounded=0;orthogonalLoop=1;jettySize=auto;html=1;" parent="WIyWlLk6GJQsqaUBKTNV-1" source="cwQ-OPMPcQKXecQ_NL5o-22" target="cwQ-OPMPcQKXecQ_NL5o-20" edge="1">
          <mxGeometry relative="1" as="geometry" />
        </mxCell>
        <mxCell id="cwQ-OPMPcQKXecQ_NL5o-22" value="Mix In Heated Mechanical Mixer" style="shape=process;whiteSpace=wrap;html=1;backgroundOutline=1;" parent="WIyWlLk6GJQsqaUBKTNV-1" vertex="1">
          <mxGeometry x="125" y="-140" width="120" height="60" as="geometry" />
        </mxCell>
        <mxCell id="cwQ-OPMPcQKXecQ_NL5o-33" style="edgeStyle=orthogonalEdgeStyle;rounded=0;orthogonalLoop=1;jettySize=auto;html=1;entryX=1;entryY=0.5;entryDx=0;entryDy=0;" parent="WIyWlLk6GJQsqaUBKTNV-1" source="cwQ-OPMPcQKXecQ_NL5o-25" target="cwQ-OPMPcQKXecQ_NL5o-22" edge="1">
          <mxGeometry relative="1" as="geometry">
            <Array as="points">
              <mxPoint x="305" y="-110" />
            </Array>
          </mxGeometry>
        </mxCell>
        <mxCell id="cwQ-OPMPcQKXecQ_NL5o-25" value="Coal Dust" style="shape=process;whiteSpace=wrap;html=1;backgroundOutline=1;" parent="WIyWlLk6GJQsqaUBKTNV-1" vertex="1">
          <mxGeometry x="270" y="-190" width="70" height="30" as="geometry" />
        </mxCell>
        <mxCell id="cwQ-OPMPcQKXecQ_NL5o-27" style="edgeStyle=orthogonalEdgeStyle;rounded=0;orthogonalLoop=1;jettySize=auto;html=1;" parent="WIyWlLk6GJQsqaUBKTNV-1" source="cwQ-OPMPcQKXecQ_NL5o-26" edge="1">
          <mxGeometry relative="1" as="geometry">
            <mxPoint x="270" y="-175" as="targetPoint" />
          </mxGeometry>
        </mxCell>
        <mxCell id="cwQ-OPMPcQKXecQ_NL5o-26" value="Coal" style="ellipse;whiteSpace=wrap;html=1;" parent="WIyWlLk6GJQsqaUBKTNV-1" vertex="1">
          <mxGeometry x="180" y="-185" width="50" height="20" as="geometry" />
        </mxCell>
        <mxCell id="cwQ-OPMPcQKXecQ_NL5o-31" style="edgeStyle=orthogonalEdgeStyle;rounded=0;orthogonalLoop=1;jettySize=auto;html=1;entryX=1;entryY=0.5;entryDx=0;entryDy=0;" parent="WIyWlLk6GJQsqaUBKTNV-1" target="cwQ-OPMPcQKXecQ_NL5o-25" edge="1">
          <mxGeometry relative="1" as="geometry">
            <mxPoint x="374" y="-175" as="sourcePoint" />
          </mxGeometry>
        </mxCell>
        <mxCell id="cwQ-OPMPcQKXecQ_NL5o-36" style="edgeStyle=orthogonalEdgeStyle;rounded=0;orthogonalLoop=1;jettySize=auto;html=1;entryX=0;entryY=0.5;entryDx=0;entryDy=0;" parent="WIyWlLk6GJQsqaUBKTNV-1" source="cwQ-OPMPcQKXecQ_NL5o-35" target="cwQ-OPMPcQKXecQ_NL5o-22" edge="1">
          <mxGeometry relative="1" as="geometry" />
        </mxCell>
        <mxCell id="cwQ-OPMPcQKXecQ_NL5o-35" value="Sand" style="ellipse;whiteSpace=wrap;html=1;" parent="WIyWlLk6GJQsqaUBKTNV-1" vertex="1">
          <mxGeometry x="30" y="-130" width="60" height="40" as="geometry" />
        </mxCell>
        <mxCell id="cwQ-OPMPcQKXecQ_NL5o-40" value="Crushing Wheels" style="rounded=0;whiteSpace=wrap;html=1;" parent="WIyWlLk6GJQsqaUBKTNV-1" vertex="1">
          <mxGeometry x="370" y="-190" width="70" height="30" as="geometry" />
        </mxCell>
        <mxCell id="cwQ-OPMPcQKXecQ_NL5o-52" value="Used to craft" style="ellipse;whiteSpace=wrap;html=1;" parent="WIyWlLk6GJQsqaUBKTNV-1" vertex="1">
          <mxGeometry x="340" y="270" width="60" height="40" as="geometry" />
        </mxCell>
        <mxCell id="cwQ-OPMPcQKXecQ_NL5o-55" value="Nav computer uses Programmed Chip for Navigation" style="rounded=0;whiteSpace=wrap;html=1;" parent="WIyWlLk6GJQsqaUBKTNV-1" vertex="1">
          <mxGeometry x="280" y="320" width="120" height="60" as="geometry" />
        </mxCell>
        <mxCell id="cwQ-OPMPcQKXecQ_NL5o-58" style="edgeStyle=orthogonalEdgeStyle;rounded=0;orthogonalLoop=1;jettySize=auto;html=1;entryX=0;entryY=0.5;entryDx=0;entryDy=0;" parent="WIyWlLk6GJQsqaUBKTNV-1" source="cwQ-OPMPcQKXecQ_NL5o-57" target="9_5W3yclDO51c-iYAp30-16" edge="1">
          <mxGeometry relative="1" as="geometry" />
        </mxCell>
        <mxCell id="cwQ-OPMPcQKXecQ_NL5o-57" value="Programs Chip" style="rounded=0;whiteSpace=wrap;html=1;" parent="WIyWlLk6GJQsqaUBKTNV-1" vertex="1">
          <mxGeometry x="280" y="200" width="90" height="20" as="geometry" />
        </mxCell>
        <mxCell id="cwQ-OPMPcQKXecQ_NL5o-60" value="" style="endArrow=classic;html=1;rounded=0;exitX=0.5;exitY=1;exitDx=0;exitDy=0;entryX=0.5;entryY=0;entryDx=0;entryDy=0;" parent="WIyWlLk6GJQsqaUBKTNV-1" source="cwQ-OPMPcQKXecQ_NL5o-13" target="9_5W3yclDO51c-iYAp30-23" edge="1">
          <mxGeometry width="50" height="50" relative="1" as="geometry">
            <mxPoint x="400" y="190" as="sourcePoint" />
            <mxPoint x="450" y="140" as="targetPoint" />
          </mxGeometry>
        </mxCell>
        <mxCell id="cwQ-OPMPcQKXecQ_NL5o-67" value="" style="endArrow=classic;html=1;rounded=0;" parent="WIyWlLk6GJQsqaUBKTNV-1" edge="1">
          <mxGeometry width="50" height="50" relative="1" as="geometry">
            <mxPoint x="350" y="40" as="sourcePoint" />
            <mxPoint x="440" y="40" as="targetPoint" />
          </mxGeometry>
        </mxCell>
        <mxCell id="cwQ-OPMPcQKXecQ_NL5o-68" value="" style="endArrow=classic;html=1;rounded=0;" parent="WIyWlLk6GJQsqaUBKTNV-1" edge="1">
          <mxGeometry width="50" height="50" relative="1" as="geometry">
            <mxPoint x="350" y="110" as="sourcePoint" />
            <mxPoint x="440" y="110" as="targetPoint" />
          </mxGeometry>
        </mxCell>
        <mxCell id="cwQ-OPMPcQKXecQ_NL5o-69" value="" style="endArrow=classic;html=1;rounded=0;" parent="WIyWlLk6GJQsqaUBKTNV-1" edge="1">
          <mxGeometry width="50" height="50" relative="1" as="geometry">
            <mxPoint x="350" y="140" as="sourcePoint" />
            <mxPoint x="440" y="140" as="targetPoint" />
          </mxGeometry>
        </mxCell>
        <mxCell id="cwQ-OPMPcQKXecQ_NL5o-70" value="" style="endArrow=classic;html=1;rounded=0;" parent="WIyWlLk6GJQsqaUBKTNV-1" edge="1">
          <mxGeometry width="50" height="50" relative="1" as="geometry">
            <mxPoint x="350" y="169.5" as="sourcePoint" />
            <mxPoint x="440" y="169.5" as="targetPoint" />
          </mxGeometry>
        </mxCell>
        <mxCell id="cwQ-OPMPcQKXecQ_NL5o-71" value="" style="endArrow=classic;html=1;rounded=0;" parent="WIyWlLk6GJQsqaUBKTNV-1" edge="1">
          <mxGeometry width="50" height="50" relative="1" as="geometry">
            <mxPoint x="490" y="170" as="sourcePoint" />
            <mxPoint x="490" y="80" as="targetPoint" />
          </mxGeometry>
        </mxCell>
        <mxCell id="cwQ-OPMPcQKXecQ_NL5o-72" value="" style="endArrow=classic;html=1;rounded=0;" parent="WIyWlLk6GJQsqaUBKTNV-1" edge="1">
          <mxGeometry width="50" height="50" relative="1" as="geometry">
            <mxPoint x="490" y="320" as="sourcePoint" />
            <mxPoint x="490" y="230" as="targetPoint" />
          </mxGeometry>
        </mxCell>
        <mxCell id="cwQ-OPMPcQKXecQ_NL5o-73" value="" style="endArrow=classic;html=1;rounded=0;" parent="WIyWlLk6GJQsqaUBKTNV-1" edge="1">
          <mxGeometry width="50" height="50" relative="1" as="geometry">
            <mxPoint x="290" y="410" as="sourcePoint" />
            <mxPoint x="420" y="410" as="targetPoint" />
          </mxGeometry>
        </mxCell>
        <mxCell id="cwQ-OPMPcQKXecQ_NL5o-74" value="" style="endArrow=classic;html=1;rounded=0;" parent="WIyWlLk6GJQsqaUBKTNV-1" edge="1">
          <mxGeometry width="50" height="50" relative="1" as="geometry">
            <mxPoint x="220" y="300" as="sourcePoint" />
            <mxPoint x="220" y="390" as="targetPoint" />
          </mxGeometry>
        </mxCell>
        <mxCell id="cwQ-OPMPcQKXecQ_NL5o-103" style="edgeStyle=orthogonalEdgeStyle;rounded=0;orthogonalLoop=1;jettySize=auto;html=1;" parent="WIyWlLk6GJQsqaUBKTNV-1" source="cwQ-OPMPcQKXecQ_NL5o-75" target="cwQ-OPMPcQKXecQ_NL5o-102" edge="1">
          <mxGeometry relative="1" as="geometry">
            <Array as="points">
              <mxPoint x="730" y="-190" />
              <mxPoint x="887" y="-190" />
            </Array>
          </mxGeometry>
        </mxCell>
        <mxCell id="cwQ-OPMPcQKXecQ_NL5o-75" value="Manual Application /&lt;br&gt;Deployer" style="shape=process;whiteSpace=wrap;html=1;backgroundOutline=1;" parent="WIyWlLk6GJQsqaUBKTNV-1" vertex="1">
          <mxGeometry x="670" y="-280" width="120" height="60" as="geometry" />
        </mxCell>
        <mxCell id="cwQ-OPMPcQKXecQ_NL5o-76" value="" style="endArrow=classic;html=1;rounded=0;exitX=0.5;exitY=1;exitDx=0;exitDy=0;entryX=1;entryY=0;entryDx=0;entryDy=0;" parent="WIyWlLk6GJQsqaUBKTNV-1" source="9_5W3yclDO51c-iYAp30-29" target="9_5W3yclDO51c-iYAp30-6" edge="1">
          <mxGeometry relative="1" as="geometry">
            <mxPoint x="370" y="70" as="sourcePoint" />
            <mxPoint x="470" y="70" as="targetPoint" />
          </mxGeometry>
        </mxCell>
        <mxCell id="cwQ-OPMPcQKXecQ_NL5o-77" value="Used For Ship Assembly" style="edgeLabel;resizable=0;html=1;align=center;verticalAlign=middle;" parent="cwQ-OPMPcQKXecQ_NL5o-76" connectable="0" vertex="1">
          <mxGeometry relative="1" as="geometry" />
        </mxCell>
        <mxCell id="cwQ-OPMPcQKXecQ_NL5o-94" style="edgeStyle=orthogonalEdgeStyle;rounded=0;orthogonalLoop=1;jettySize=auto;html=1;entryX=0;entryY=0.5;entryDx=0;entryDy=0;" parent="WIyWlLk6GJQsqaUBKTNV-1" source="cwQ-OPMPcQKXecQ_NL5o-89" target="cwQ-OPMPcQKXecQ_NL5o-90" edge="1">
          <mxGeometry relative="1" as="geometry">
            <Array as="points">
              <mxPoint x="540" y="-335" />
            </Array>
          </mxGeometry>
        </mxCell>
        <mxCell id="cwQ-OPMPcQKXecQ_NL5o-89" value="Steel" style="ellipse;whiteSpace=wrap;html=1;" parent="WIyWlLk6GJQsqaUBKTNV-1" vertex="1">
          <mxGeometry x="520" y="-400" width="40" height="30" as="geometry" />
        </mxCell>
        <mxCell id="cwQ-OPMPcQKXecQ_NL5o-97" style="edgeStyle=orthogonalEdgeStyle;rounded=0;orthogonalLoop=1;jettySize=auto;html=1;" parent="WIyWlLk6GJQsqaUBKTNV-1" source="cwQ-OPMPcQKXecQ_NL5o-90" target="cwQ-OPMPcQKXecQ_NL5o-96" edge="1">
          <mxGeometry relative="1" as="geometry" />
        </mxCell>
        <mxCell id="cwQ-OPMPcQKXecQ_NL5o-90" value="Press In Heated Basin" style="shape=process;whiteSpace=wrap;html=1;backgroundOutline=1;" parent="WIyWlLk6GJQsqaUBKTNV-1" vertex="1">
          <mxGeometry x="570" y="-360" width="80" height="50" as="geometry" />
        </mxCell>
        <mxCell id="cwQ-OPMPcQKXecQ_NL5o-95" style="edgeStyle=orthogonalEdgeStyle;rounded=0;orthogonalLoop=1;jettySize=auto;html=1;entryX=1;entryY=0.5;entryDx=0;entryDy=0;" parent="WIyWlLk6GJQsqaUBKTNV-1" source="cwQ-OPMPcQKXecQ_NL5o-93" target="cwQ-OPMPcQKXecQ_NL5o-90" edge="1">
          <mxGeometry relative="1" as="geometry" />
        </mxCell>
        <mxCell id="cwQ-OPMPcQKXecQ_NL5o-93" value="Silicon Plate" style="ellipse;whiteSpace=wrap;html=1;" parent="WIyWlLk6GJQsqaUBKTNV-1" vertex="1">
          <mxGeometry x="640" y="-410" width="60" height="40" as="geometry" />
        </mxCell>
        <mxCell id="cwQ-OPMPcQKXecQ_NL5o-96" value="Stellar Plating" style="ellipse;whiteSpace=wrap;html=1;" parent="WIyWlLk6GJQsqaUBKTNV-1" vertex="1">
          <mxGeometry x="585" y="-270" width="50" height="40" as="geometry" />
        </mxCell>
        <mxCell id="cwQ-OPMPcQKXecQ_NL5o-98" value="" style="endArrow=classic;html=1;rounded=0;exitX=1;exitY=0.5;exitDx=0;exitDy=0;entryX=0;entryY=0.5;entryDx=0;entryDy=0;" parent="WIyWlLk6GJQsqaUBKTNV-1" source="cwQ-OPMPcQKXecQ_NL5o-96" target="cwQ-OPMPcQKXecQ_NL5o-75" edge="1">
          <mxGeometry width="50" height="50" relative="1" as="geometry">
            <mxPoint x="590" y="-90" as="sourcePoint" />
            <mxPoint x="640" y="-140" as="targetPoint" />
          </mxGeometry>
        </mxCell>
        <mxCell id="cwQ-OPMPcQKXecQ_NL5o-101" style="edgeStyle=orthogonalEdgeStyle;rounded=0;orthogonalLoop=1;jettySize=auto;html=1;" parent="WIyWlLk6GJQsqaUBKTNV-1" source="cwQ-OPMPcQKXecQ_NL5o-100" target="cwQ-OPMPcQKXecQ_NL5o-75" edge="1">
          <mxGeometry relative="1" as="geometry" />
        </mxCell>
        <mxCell id="cwQ-OPMPcQKXecQ_NL5o-100" value="Train Casing" style="ellipse;whiteSpace=wrap;html=1;" parent="WIyWlLk6GJQsqaUBKTNV-1" vertex="1">
          <mxGeometry x="827" y="-270" width="50" height="40" as="geometry" />
        </mxCell>
        <mxCell id="cwQ-OPMPcQKXecQ_NL5o-104" style="edgeStyle=orthogonalEdgeStyle;rounded=0;orthogonalLoop=1;jettySize=auto;html=1;entryX=1;entryY=0.5;entryDx=0;entryDy=0;" parent="WIyWlLk6GJQsqaUBKTNV-1" source="cwQ-OPMPcQKXecQ_NL5o-102" target="9_5W3yclDO51c-iYAp30-9" edge="1">
          <mxGeometry relative="1" as="geometry">
            <Array as="points">
              <mxPoint x="950" y="-100" />
              <mxPoint x="950" y="-5" />
            </Array>
          </mxGeometry>
        </mxCell>
        <mxCell id="cwQ-OPMPcQKXecQ_NL5o-105" style="edgeStyle=orthogonalEdgeStyle;rounded=0;orthogonalLoop=1;jettySize=auto;html=1;entryX=1;entryY=0.5;entryDx=0;entryDy=0;" parent="WIyWlLk6GJQsqaUBKTNV-1" source="cwQ-OPMPcQKXecQ_NL5o-102" target="9_5W3yclDO51c-iYAp30-14" edge="1">
          <mxGeometry relative="1" as="geometry" />
        </mxCell>
        <mxCell id="cwQ-OPMPcQKXecQ_NL5o-106" style="edgeStyle=orthogonalEdgeStyle;rounded=0;orthogonalLoop=1;jettySize=auto;html=1;entryX=1;entryY=0.5;entryDx=0;entryDy=0;" parent="WIyWlLk6GJQsqaUBKTNV-1" source="cwQ-OPMPcQKXecQ_NL5o-102" target="9_5W3yclDO51c-iYAp30-28" edge="1">
          <mxGeometry relative="1" as="geometry" />
        </mxCell>
        <mxCell id="cwQ-OPMPcQKXecQ_NL5o-107" style="edgeStyle=orthogonalEdgeStyle;rounded=0;orthogonalLoop=1;jettySize=auto;html=1;entryX=1;entryY=0.5;entryDx=0;entryDy=0;" parent="WIyWlLk6GJQsqaUBKTNV-1" source="cwQ-OPMPcQKXecQ_NL5o-102" target="9_5W3yclDO51c-iYAp30-29" edge="1">
          <mxGeometry relative="1" as="geometry" />
        </mxCell>
        <mxCell id="cwQ-OPMPcQKXecQ_NL5o-102" value="Stellar Casing" style="rounded=0;whiteSpace=wrap;html=1;" parent="WIyWlLk6GJQsqaUBKTNV-1" vertex="1">
          <mxGeometry x="827" y="-130" width="120" height="60" as="geometry" />
        </mxCell>
        <mxCell id="cwQ-OPMPcQKXecQ_NL5o-108" value="" style="shape=flexArrow;endArrow=classic;html=1;rounded=0;exitX=0.5;exitY=0;exitDx=0;exitDy=0;entryX=0.5;entryY=1;entryDx=0;entryDy=0;" parent="WIyWlLk6GJQsqaUBKTNV-1" target="9_5W3yclDO51c-iYAp30-9" edge="1">
          <mxGeometry width="50" height="50" relative="1" as="geometry">
            <mxPoint x="870" y="65" as="sourcePoint" />
            <mxPoint x="690" y="-20" as="targetPoint" />
            <Array as="points" />
          </mxGeometry>
        </mxCell>
        <mxCell id="cwQ-OPMPcQKXecQ_NL5o-111" style="edgeStyle=orthogonalEdgeStyle;rounded=0;orthogonalLoop=1;jettySize=auto;html=1;" parent="WIyWlLk6GJQsqaUBKTNV-1" source="cwQ-OPMPcQKXecQ_NL5o-109" target="cwQ-OPMPcQKXecQ_NL5o-110" edge="1">
          <mxGeometry relative="1" as="geometry" />
        </mxCell>
        <mxCell id="cwQ-OPMPcQKXecQ_NL5o-109" value="Mixing in Unheated Basin" style="shape=process;whiteSpace=wrap;html=1;backgroundOutline=1;" parent="WIyWlLk6GJQsqaUBKTNV-1" vertex="1">
          <mxGeometry x="810" y="130" width="120" height="60" as="geometry" />
        </mxCell>
        <mxCell id="cwQ-OPMPcQKXecQ_NL5o-110" value="Rocket Fuel" style="ellipse;whiteSpace=wrap;html=1;" parent="WIyWlLk6GJQsqaUBKTNV-1" vertex="1">
          <mxGeometry x="835" y="60" width="70" height="40" as="geometry" />
        </mxCell>
        <mxCell id="cwQ-OPMPcQKXecQ_NL5o-114" style="edgeStyle=orthogonalEdgeStyle;rounded=0;orthogonalLoop=1;jettySize=auto;html=1;entryX=0.5;entryY=1;entryDx=0;entryDy=0;" parent="WIyWlLk6GJQsqaUBKTNV-1" source="cwQ-OPMPcQKXecQ_NL5o-112" target="cwQ-OPMPcQKXecQ_NL5o-113" edge="1">
          <mxGeometry relative="1" as="geometry" />
        </mxCell>
        <mxCell id="cwQ-OPMPcQKXecQ_NL5o-112" value="Mix in Basin" style="shape=process;whiteSpace=wrap;html=1;backgroundOutline=1;rotation=0;" parent="WIyWlLk6GJQsqaUBKTNV-1" vertex="1">
          <mxGeometry x="620" y="240" width="120" height="60" as="geometry" />
        </mxCell>
        <mxCell id="cwQ-OPMPcQKXecQ_NL5o-115" style="edgeStyle=orthogonalEdgeStyle;rounded=0;orthogonalLoop=1;jettySize=auto;html=1;entryX=0;entryY=0.5;entryDx=0;entryDy=0;" parent="WIyWlLk6GJQsqaUBKTNV-1" source="cwQ-OPMPcQKXecQ_NL5o-113" target="cwQ-OPMPcQKXecQ_NL5o-109" edge="1">
          <mxGeometry relative="1" as="geometry" />
        </mxCell>
        <mxCell id="cwQ-OPMPcQKXecQ_NL5o-113" value="Oxidizer" style="ellipse;whiteSpace=wrap;html=1;" parent="WIyWlLk6GJQsqaUBKTNV-1" vertex="1">
          <mxGeometry x="650" y="140" width="60" height="40" as="geometry" />
        </mxCell>
        <mxCell id="cwQ-OPMPcQKXecQ_NL5o-117" style="edgeStyle=orthogonalEdgeStyle;rounded=0;orthogonalLoop=1;jettySize=auto;html=1;entryX=0;entryY=0.5;entryDx=0;entryDy=0;" parent="WIyWlLk6GJQsqaUBKTNV-1" source="cwQ-OPMPcQKXecQ_NL5o-116" target="cwQ-OPMPcQKXecQ_NL5o-112" edge="1">
          <mxGeometry relative="1" as="geometry">
            <Array as="points">
              <mxPoint x="580" y="270" />
            </Array>
          </mxGeometry>
        </mxCell>
        <mxCell id="cwQ-OPMPcQKXecQ_NL5o-116" value="Cinder Flour" style="ellipse;whiteSpace=wrap;html=1;" parent="WIyWlLk6GJQsqaUBKTNV-1" vertex="1">
          <mxGeometry x="550" y="320" width="60" height="40" as="geometry" />
        </mxCell>
        <mxCell id="cwQ-OPMPcQKXecQ_NL5o-119" style="edgeStyle=orthogonalEdgeStyle;rounded=0;orthogonalLoop=1;jettySize=auto;html=1;entryX=1;entryY=0.5;entryDx=0;entryDy=0;" parent="WIyWlLk6GJQsqaUBKTNV-1" edge="1">
          <mxGeometry relative="1" as="geometry">
            <Array as="points">
              <mxPoint x="780" y="310" />
              <mxPoint x="780" y="270" />
            </Array>
            <mxPoint x="770" y="309.9956174215069" as="sourcePoint" />
            <mxPoint x="740" y="269.93999999999977" as="targetPoint" />
          </mxGeometry>
        </mxCell>
        <mxCell id="cwQ-OPMPcQKXecQ_NL5o-118" value="Obsidian Dust" style="ellipse;whiteSpace=wrap;html=1;" parent="WIyWlLk6GJQsqaUBKTNV-1" vertex="1">
          <mxGeometry x="740" y="310" width="75" height="50" as="geometry" />
        </mxCell>
        <mxCell id="_uk67Srlux6ZUrrW_Brj-1" style="edgeStyle=orthogonalEdgeStyle;rounded=0;orthogonalLoop=1;jettySize=auto;html=1;" parent="WIyWlLk6GJQsqaUBKTNV-1" source="_uk67Srlux6ZUrrW_Brj-0" target="cwQ-OPMPcQKXecQ_NL5o-109" edge="1">
          <mxGeometry relative="1" as="geometry" />
        </mxCell>
        <mxCell id="_uk67Srlux6ZUrrW_Brj-0" value="Petroleum" style="ellipse;whiteSpace=wrap;html=1;" parent="WIyWlLk6GJQsqaUBKTNV-1" vertex="1">
          <mxGeometry x="980" y="140" width="70" height="40" as="geometry" />
        </mxCell>
        <mxCell id="_uk67Srlux6ZUrrW_Brj-5" style="edgeStyle=orthogonalEdgeStyle;rounded=0;orthogonalLoop=1;jettySize=auto;html=1;" parent="WIyWlLk6GJQsqaUBKTNV-1" source="_uk67Srlux6ZUrrW_Brj-4" target="_uk67Srlux6ZUrrW_Brj-0" edge="1">
          <mxGeometry relative="1" as="geometry" />
        </mxCell>
        <mxCell id="_uk67Srlux6ZUrrW_Brj-7" style="edgeStyle=orthogonalEdgeStyle;rounded=0;orthogonalLoop=1;jettySize=auto;html=1;" parent="WIyWlLk6GJQsqaUBKTNV-1" source="_uk67Srlux6ZUrrW_Brj-4" target="_uk67Srlux6ZUrrW_Brj-6" edge="1">
          <mxGeometry relative="1" as="geometry" />
        </mxCell>
        <mxCell id="_uk67Srlux6ZUrrW_Brj-4" value="Mixing In Heated Basin" style="whiteSpace=wrap;html=1;aspect=fixed;" parent="WIyWlLk6GJQsqaUBKTNV-1" vertex="1">
          <mxGeometry x="975" y="230" width="80" height="80" as="geometry" />
        </mxCell>
        <mxCell id="_uk67Srlux6ZUrrW_Brj-6" value="Pure Oil&lt;br&gt;(Useful Later)" style="ellipse;whiteSpace=wrap;html=1;" parent="WIyWlLk6GJQsqaUBKTNV-1" vertex="1">
          <mxGeometry x="1100" y="240" width="90" height="60" as="geometry" />
        </mxCell>
        <mxCell id="_uk67Srlux6ZUrrW_Brj-9" style="edgeStyle=orthogonalEdgeStyle;rounded=0;orthogonalLoop=1;jettySize=auto;html=1;" parent="WIyWlLk6GJQsqaUBKTNV-1" target="_uk67Srlux6ZUrrW_Brj-4" edge="1">
          <mxGeometry relative="1" as="geometry">
            <mxPoint x="1015" y="359.99999999999955" as="sourcePoint" />
          </mxGeometry>
        </mxCell>
        <mxCell id="hPGkdVaQ_nDl7Uu6xCcA-3" style="edgeStyle=orthogonalEdgeStyle;rounded=0;orthogonalLoop=1;jettySize=auto;html=1;entryX=0.5;entryY=1;entryDx=0;entryDy=0;" edge="1" parent="WIyWlLk6GJQsqaUBKTNV-1" source="_uk67Srlux6ZUrrW_Brj-10" target="hPGkdVaQ_nDl7Uu6xCcA-0">
          <mxGeometry relative="1" as="geometry" />
        </mxCell>
        <mxCell id="_uk67Srlux6ZUrrW_Brj-10" value="Mechanical Press Over Heated Basin" style="shape=process;whiteSpace=wrap;html=1;backgroundOutline=1;rounded=0;" parent="WIyWlLk6GJQsqaUBKTNV-1" vertex="1">
          <mxGeometry x="957.5" y="430" width="120" height="60" as="geometry" />
        </mxCell>
        <mxCell id="hPGkdVaQ_nDl7Uu6xCcA-2" style="edgeStyle=orthogonalEdgeStyle;rounded=0;orthogonalLoop=1;jettySize=auto;html=1;entryX=0.5;entryY=1;entryDx=0;entryDy=0;" edge="1" parent="WIyWlLk6GJQsqaUBKTNV-1" source="_uk67Srlux6ZUrrW_Brj-12" target="_uk67Srlux6ZUrrW_Brj-10">
          <mxGeometry relative="1" as="geometry" />
        </mxCell>
        <mxCell id="_uk67Srlux6ZUrrW_Brj-12" value="Bone Meal or Bones" style="ellipse;whiteSpace=wrap;html=1;" parent="WIyWlLk6GJQsqaUBKTNV-1" vertex="1">
          <mxGeometry x="952.5" y="525" width="130" height="35" as="geometry" />
        </mxCell>
        <mxCell id="_uk67Srlux6ZUrrW_Brj-24" style="edgeStyle=orthogonalEdgeStyle;rounded=0;orthogonalLoop=1;jettySize=auto;html=1;entryX=0;entryY=0.5;entryDx=0;entryDy=0;" parent="WIyWlLk6GJQsqaUBKTNV-1" source="_uk67Srlux6ZUrrW_Brj-16" target="_uk67Srlux6ZUrrW_Brj-23" edge="1">
          <mxGeometry relative="1" as="geometry">
            <Array as="points">
              <mxPoint x="-200" y="125" />
            </Array>
          </mxGeometry>
        </mxCell>
        <mxCell id="_uk67Srlux6ZUrrW_Brj-16" value="Mix In Heated Basin" style="shape=process;whiteSpace=wrap;html=1;backgroundOutline=1;" parent="WIyWlLk6GJQsqaUBKTNV-1" vertex="1">
          <mxGeometry x="-260" y="75" width="120" height="30" as="geometry" />
        </mxCell>
        <mxCell id="_uk67Srlux6ZUrrW_Brj-20" style="edgeStyle=orthogonalEdgeStyle;rounded=0;orthogonalLoop=1;jettySize=auto;html=1;entryX=0;entryY=0.5;entryDx=0;entryDy=0;" parent="WIyWlLk6GJQsqaUBKTNV-1" source="_uk67Srlux6ZUrrW_Brj-17" target="_uk67Srlux6ZUrrW_Brj-16" edge="1">
          <mxGeometry relative="1" as="geometry" />
        </mxCell>
        <mxCell id="_uk67Srlux6ZUrrW_Brj-17" value="Iron" style="ellipse;whiteSpace=wrap;html=1;" parent="WIyWlLk6GJQsqaUBKTNV-1" vertex="1">
          <mxGeometry x="-340" y="75" width="50" height="30" as="geometry" />
        </mxCell>
        <mxCell id="_uk67Srlux6ZUrrW_Brj-18" value="Coal" style="ellipse;whiteSpace=wrap;html=1;" parent="WIyWlLk6GJQsqaUBKTNV-1" vertex="1">
          <mxGeometry x="-100" y="75" width="50" height="30" as="geometry" />
        </mxCell>
        <mxCell id="_uk67Srlux6ZUrrW_Brj-19" style="edgeStyle=orthogonalEdgeStyle;rounded=0;orthogonalLoop=1;jettySize=auto;html=1;entryX=1;entryY=0.5;entryDx=0;entryDy=0;" parent="WIyWlLk6GJQsqaUBKTNV-1" source="_uk67Srlux6ZUrrW_Brj-18" target="_uk67Srlux6ZUrrW_Brj-16" edge="1">
          <mxGeometry relative="1" as="geometry" />
        </mxCell>
        <mxCell id="_uk67Srlux6ZUrrW_Brj-25" style="edgeStyle=orthogonalEdgeStyle;rounded=0;orthogonalLoop=1;jettySize=auto;html=1;entryX=0;entryY=0.5;entryDx=0;entryDy=0;" parent="WIyWlLk6GJQsqaUBKTNV-1" source="_uk67Srlux6ZUrrW_Brj-23" target="9_5W3yclDO51c-iYAp30-23" edge="1">
          <mxGeometry relative="1" as="geometry" />
        </mxCell>
        <mxCell id="_uk67Srlux6ZUrrW_Brj-26" style="edgeStyle=orthogonalEdgeStyle;rounded=0;orthogonalLoop=1;jettySize=auto;html=1;entryX=0;entryY=0.5;entryDx=0;entryDy=0;" parent="WIyWlLk6GJQsqaUBKTNV-1" source="_uk67Srlux6ZUrrW_Brj-23" target="9_5W3yclDO51c-iYAp30-24" edge="1">
          <mxGeometry relative="1" as="geometry" />
        </mxCell>
        <mxCell id="_uk67Srlux6ZUrrW_Brj-28" style="edgeStyle=orthogonalEdgeStyle;rounded=0;orthogonalLoop=1;jettySize=auto;html=1;entryX=0;entryY=0.5;entryDx=0;entryDy=0;" parent="WIyWlLk6GJQsqaUBKTNV-1" source="_uk67Srlux6ZUrrW_Brj-23" target="9_5W3yclDO51c-iYAp30-26" edge="1">
          <mxGeometry relative="1" as="geometry" />
        </mxCell>
        <mxCell id="hPGkdVaQ_nDl7Uu6xCcA-10" style="edgeStyle=orthogonalEdgeStyle;rounded=0;orthogonalLoop=1;jettySize=auto;html=1;exitX=1;exitY=0.5;exitDx=0;exitDy=0;entryX=0;entryY=0.5;entryDx=0;entryDy=0;" edge="1" parent="WIyWlLk6GJQsqaUBKTNV-1" source="_uk67Srlux6ZUrrW_Brj-23" target="9_5W3yclDO51c-iYAp30-22">
          <mxGeometry relative="1" as="geometry" />
        </mxCell>
        <mxCell id="hPGkdVaQ_nDl7Uu6xCcA-16" style="edgeStyle=orthogonalEdgeStyle;rounded=0;orthogonalLoop=1;jettySize=auto;html=1;exitX=1;exitY=1;exitDx=0;exitDy=0;entryX=0.5;entryY=0;entryDx=0;entryDy=0;" edge="1" parent="WIyWlLk6GJQsqaUBKTNV-1" source="_uk67Srlux6ZUrrW_Brj-23" target="hPGkdVaQ_nDl7Uu6xCcA-12">
          <mxGeometry relative="1" as="geometry" />
        </mxCell>
        <mxCell id="_uk67Srlux6ZUrrW_Brj-23" value="Steel" style="ellipse;whiteSpace=wrap;html=1;" parent="WIyWlLk6GJQsqaUBKTNV-1" vertex="1">
          <mxGeometry x="-80" y="110" width="40" height="30" as="geometry" />
        </mxCell>
        <mxCell id="hPGkdVaQ_nDl7Uu6xCcA-0" value="Crude Oil&lt;br&gt;" style="ellipse;whiteSpace=wrap;html=1;" vertex="1" parent="WIyWlLk6GJQsqaUBKTNV-1">
          <mxGeometry x="980" y="360" width="75" height="30" as="geometry" />
        </mxCell>
        <mxCell id="hPGkdVaQ_nDl7Uu6xCcA-17" style="edgeStyle=orthogonalEdgeStyle;rounded=0;orthogonalLoop=1;jettySize=auto;html=1;exitX=0.5;exitY=1;exitDx=0;exitDy=0;entryX=0.5;entryY=0;entryDx=0;entryDy=0;" edge="1" parent="WIyWlLk6GJQsqaUBKTNV-1" source="hPGkdVaQ_nDl7Uu6xCcA-12" target="hPGkdVaQ_nDl7Uu6xCcA-13">
          <mxGeometry relative="1" as="geometry" />
        </mxCell>
        <mxCell id="hPGkdVaQ_nDl7Uu6xCcA-12" value="Mechanical Press" style="shape=process;whiteSpace=wrap;html=1;backgroundOutline=1;" vertex="1" parent="WIyWlLk6GJQsqaUBKTNV-1">
          <mxGeometry x="-52.5" y="150" width="80" height="40" as="geometry" />
        </mxCell>
        <mxCell id="hPGkdVaQ_nDl7Uu6xCcA-18" style="edgeStyle=orthogonalEdgeStyle;rounded=0;orthogonalLoop=1;jettySize=auto;html=1;entryX=0.25;entryY=0;entryDx=0;entryDy=0;" edge="1" parent="WIyWlLk6GJQsqaUBKTNV-1" source="hPGkdVaQ_nDl7Uu6xCcA-13" target="9_5W3yclDO51c-iYAp30-22">
          <mxGeometry relative="1" as="geometry">
            <Array as="points">
              <mxPoint x="108" y="220" />
              <mxPoint x="108" y="110" />
              <mxPoint x="220" y="110" />
            </Array>
          </mxGeometry>
        </mxCell>
        <mxCell id="hPGkdVaQ_nDl7Uu6xCcA-20" style="edgeStyle=orthogonalEdgeStyle;rounded=0;orthogonalLoop=1;jettySize=auto;html=1;entryX=0.5;entryY=1;entryDx=0;entryDy=0;" edge="1" parent="WIyWlLk6GJQsqaUBKTNV-1" source="hPGkdVaQ_nDl7Uu6xCcA-13" target="9_5W3yclDO51c-iYAp30-26">
          <mxGeometry relative="1" as="geometry" />
        </mxCell>
        <mxCell id="hPGkdVaQ_nDl7Uu6xCcA-23" style="edgeStyle=orthogonalEdgeStyle;rounded=0;orthogonalLoop=1;jettySize=auto;html=1;" edge="1" parent="WIyWlLk6GJQsqaUBKTNV-1" source="hPGkdVaQ_nDl7Uu6xCcA-13" target="hPGkdVaQ_nDl7Uu6xCcA-22">
          <mxGeometry relative="1" as="geometry" />
        </mxCell>
        <mxCell id="hPGkdVaQ_nDl7Uu6xCcA-13" value="Steel Plate" style="ellipse;whiteSpace=wrap;html=1;" vertex="1" parent="WIyWlLk6GJQsqaUBKTNV-1">
          <mxGeometry x="-50" y="210" width="75" height="20" as="geometry" />
        </mxCell>
        <mxCell id="hPGkdVaQ_nDl7Uu6xCcA-25" value="" style="edgeStyle=orthogonalEdgeStyle;rounded=0;orthogonalLoop=1;jettySize=auto;html=1;" edge="1" parent="WIyWlLk6GJQsqaUBKTNV-1" source="hPGkdVaQ_nDl7Uu6xCcA-22" target="hPGkdVaQ_nDl7Uu6xCcA-24">
          <mxGeometry relative="1" as="geometry" />
        </mxCell>
        <mxCell id="hPGkdVaQ_nDl7Uu6xCcA-22" value="&lt;font style=&quot;font-size: 12px;&quot;&gt;Mechanical Saw&lt;/font&gt;" style="shape=process;whiteSpace=wrap;html=1;backgroundOutline=1;" vertex="1" parent="WIyWlLk6GJQsqaUBKTNV-1">
          <mxGeometry x="-52.5" y="245" width="80" height="35" as="geometry" />
        </mxCell>
        <mxCell id="hPGkdVaQ_nDl7Uu6xCcA-27" style="edgeStyle=orthogonalEdgeStyle;rounded=0;orthogonalLoop=1;jettySize=auto;html=1;entryX=0.25;entryY=1;entryDx=0;entryDy=0;exitX=1;exitY=0.5;exitDx=0;exitDy=0;" edge="1" parent="WIyWlLk6GJQsqaUBKTNV-1" source="hPGkdVaQ_nDl7Uu6xCcA-24" target="9_5W3yclDO51c-iYAp30-26">
          <mxGeometry relative="1" as="geometry">
            <Array as="points">
              <mxPoint x="140" y="260" />
              <mxPoint x="170" y="260" />
              <mxPoint x="170" y="200" />
              <mxPoint x="220" y="200" />
            </Array>
          </mxGeometry>
        </mxCell>
        <mxCell id="hPGkdVaQ_nDl7Uu6xCcA-24" value="Steel Rod" style="ellipse;whiteSpace=wrap;html=1;" vertex="1" parent="WIyWlLk6GJQsqaUBKTNV-1">
          <mxGeometry x="60" y="249.37" width="80" height="26.25" as="geometry" />
        </mxCell>
      </root>
    </mxGraphModel>
  </diagram>
</mxfile>
